HIERARCHY
ROOT Hips
{
	OFFSET 0.00000 0.00000 0.00000
	CHANNELS 6 Xposition Yposition Zposition Yrotation Zrotation Xrotation 
	JOINT Lumbar
	{
		OFFSET 0 0 0
		CHANNELS 3 Zrotation Xrotation Yrotation
		JOINT Neck
		{
			OFFSET 0.00 0.2701 0.00
			CHANNELS 3 Zrotation Xrotation Yrotation
			End Site
			{
				OFFSET 0.00 0.1379 0.00
			}
		}
		JOINT RightShoulder
		{
			OFFSET 0.0119 0.2289 0.1181
			CHANNELS 3 Zrotation Xrotation Yrotation
			JOINT RightElbow
			{
				OFFSET 0.00 -0.1475 0.00
				CHANNELS 2 Zrotation Yrotation
				JOINT RightWrist
				{
					OFFSET 0.00 -0.1605 0.00
					CHANNELS 2 Zrotation Xrotation
					End Site
					{
						OFFSET 0.0040 -0.1068 0.0006
					}
				}
			}
		}
		JOINT LeftShoulder
		{
			OFFSET 0.0119 0.2289 -0.1181
			CHANNELS 3 Zrotation Xrotation Yrotation
			JOINT LeftElbow
			{
				OFFSET 0.00 -0.1475 0.00
				CHANNELS 2 Zrotation Yrotation
				JOINT LeftWrist
				{
					OFFSET 0.00 -0.1605 0.00
					CHANNELS 2 Zrotation Xrotation
					End Site
					{
						OFFSET 0.0040 -0.1068 -0.0006
					}
				}
			}
		}
	}
	JOINT RightHip
	{
		OFFSET 0.0316 -0.0424 0.0458
		CHANNELS 3 Zrotation Xrotation Yrotation
		JOINT RightKnee
		{
			OFFSET 0.00 -0.2438 0.00
			CHANNELS 1 Zrotation
			JOINT RightAnkle
			{
				OFFSET 0.00 -0.2449 0.00
				CHANNELS 3 Zrotation Xrotation Yrotation
				End Site
				{
					OFFSET 0.1237 -0.0542 0.0051
				}
			}
		}
	}
	JOINT LeftHip
	{
		OFFSET 0.0316 -0.0424 -0.0458
		CHANNELS 3 Zrotation Xrotation Yrotation
		JOINT LeftKnee
		{
			OFFSET 0.00 -0.2438 0.00
			CHANNELS 1 Zrotation
			JOINT LeftAnkle
			{
				OFFSET 0.00 -0.2449 0.00
				CHANNELS 3 Zrotation Xrotation Yrotation
				End Site
				{
					OFFSET 0.1237 -0.0542 -0.0051
				}
			}
		}
	}
}
MOTION
Frames: 11
Frame Time: 0.02
-0.2207 0.57874 -0.03338 222.25848 0 -1.95157 -7.21376 9.01712 -1.48525 -50.80163 -0.15651 -3.18199 49.2823 -16.06952 -2.70113 12.48018 83.93791 -4.55067 -4.32214 50.24228 21.64699 -25.9006 20.85361 -78.18744 -11.92314 3.19832 1.3045 8.59902 -4.05412 -5.20021 -3.32358 -3.70761 -7.70209 15.04493 10.16348 -1.94381 -33.94025 6.31971 1.09 -2.41403
-0.22145 0.57865 -0.03353 222.05424 0 -1.97308 -7.29895 9.13367 -1.53803 -50.72536 -0.08657 -3.14643 49.12047 -16.10153 -2.5255 12.4732 83.72091 -4.4325 -4.3014 50.20992 21.66938 -25.93926 20.92272 -78.25013 -11.9483 3.20343 1.23471 8.70038 -3.76298 -5.12399 -3.3544 -3.72488 -7.87676 14.44137 10.13741 -2.25386 -31.66409 6.39802 1.05579 -2.47466
-0.22212 0.57856 -0.03353 221.79947 0 -2.00543 -7.39124 9.23547 -1.58015 -50.67278 -0.01383 -3.08321 49.08696 -16.13221 -2.12298 12.51527 83.52904 -4.29244 -4.3242 50.20761 21.6753 -25.99301 20.9858 -78.32827 -11.96522 3.21266 1.1414 8.80542 -3.35932 -5.00486 -3.41273 -3.74626 -8.13817 13.7516 10.09129 -2.78108 -29.14028 6.42857 0.93716 -2.69619
-0.22283 0.57847 -0.03359 221.56103 0 -2.03615 -7.48001 9.3442 -1.62591 -50.60861 0.05488 -3.03176 48.99795 -16.16014 -1.81221 12.54545 83.33038 -4.17224 -4.33243 50.18941 21.6892 -26.03228 21.05142 -78.39568 -11.98826 3.21998 1.06098 8.90986 -3.01367 -4.90979 -3.45646 -3.76415 -8.34519 13.09817 10.0552 -3.18652 -26.7383 6.47364 0.85453 -2.85134
-0.22355 0.57839 -0.03369 221.34734 0 -2.05382 -7.57089 9.45244 -1.67507 -50.546 0.13394 -2.98292 48.89609 -16.20197 -1.5421 12.5356 83.11349 -4.01204 -4.32056 50.17855 21.70134 -26.101 21.11898 -78.47798 -12.00249 3.22778 0.97449 9.00974 -2.64076 -4.80111 -3.50758 -3.78881 -8.61149 12.44966 10.01544 -3.69023 -24.27559 6.54992 0.77973 -2.98563
-0.22421 0.57829 -0.03367 221.07178 0 -2.10076 -7.65881 9.55773 -1.71554 -50.48635 0.1931 -2.92237 48.85249 -16.21496 -1.13598 12.61936 82.93992 -3.92905 -4.36048 50.16056 21.71277 -26.11404 21.1803 -78.53335 -12.03223 3.23537 0.89428 9.11974 -2.29735 -4.70919 -3.55035 -3.80039 -8.77659 11.77509 9.97872 -4.04356 -21.89521 6.54928 0.67097 -3.19544
-0.22473 0.57809 -0.03334 220.63183 0 -2.22756 -7.73572 9.66205 -1.73085 -50.43118 0.19006 -2.83644 48.9305 -16.14474 -0.41261 12.94871 82.88319 -4.06745 -4.52844 50.11286 21.73054 -25.95675 21.23045 -78.50901 -12.112 3.24219 0.83164 9.25999 -2.06084 -4.66471 -3.56403 -3.77467 -8.63911 11.02584 9.95215 -3.8894 -19.72507 6.35153 0.46919 -3.61502
-0.22519 0.57787 -0.0329 220.13256 0 -2.38294 -7.80946 9.76317 -1.73848 -50.37815 0.16802 -2.73976 49.06419 -16.04623 0.43921 13.37013 82.8698 -4.28374 -4.74729 50.05773 21.74745 -25.74537 21.27374 -78.45742 -12.20672 3.24853 0.77669 9.40963 -1.85768 -4.63949 -3.56844 -3.73574 -8.39789 10.25864 9.92973 -3.58208 -17.66334 6.07781 0.23967 -4.09745
-0.22566 0.57766 -0.0325 219.66512 0 -2.52412 -7.88524 9.86349 -1.75251 -50.32296 0.15932 -2.648 49.17765 -15.96329 1.23305 13.74949 82.83236 -4.46209 -4.94562 50.00798 21.76189 -25.56763 21.3169 -78.41939 -12.29094 3.25441 0.72123 9.55303 -1.64076 -4.61057 -3.57685 -3.70289 -8.20568 9.51571 9.90749 -3.37119 -15.60439 5.8357 0.03628 -4.52324
-0.22617 0.57744 -0.03212 219.17658 0 -2.6711 -7.95879 9.97312 -1.75461 -50.27326 0.13161 -2.55514 49.27432 -15.86901 2.03351 14.13177 82.80838 -4.64976 -5.13536 49.95068 21.78759 -25.35282 21.37293 -78.37686 -12.39001 3.26303 0.65218 9.70532 -1.41541 -4.55861 -3.58708 -3.66962 -8.00768 8.70092 9.87623 -3.05885 -13.31493 5.60194 -0.22611 -5.07102
-0.2266 0.57725 -0.03168 218.71698 0 -2.81228 -8.03612 10.06243 -1.77892 -50.21271 0.13797 -2.46238 49.41732 -15.79145 2.84741 14.52894 82.77365 -4.83765 -5.35342 49.90711 21.79017 -25.20134 21.40141 -78.3371 -12.46245 3.2661 0.61385 9.84076 -1.21528 -4.56016 -3.59098 -3.63434 -7.79707 8.03359 9.86454 -2.9134 -11.53696 5.33626 -0.37241 -5.3803
